<svg version="1.1" id="Layer_1" xmlns="http://www.w3.org/2000/svg" xmlns:xlink="http://www.w3.org/1999/xlink" x="0px" y="0px"
	 width="100%" viewBox="0 0 512 512" enable-background="new 0 0 512 512" xml:space="preserve">
<path fill="#000000" opacity="1.000000" stroke="none" 
	d="
M179.485092,257.334686 
	C169.558548,235.798126 173.215668,215.329010 190.156784,201.372162 
	C207.360199,187.199203 229.982941,187.692276 247.878494,197.376770 
	C252.833145,200.058075 253.017700,204.975098 251.984848,209.699829 
	C250.887726,214.718674 249.188126,219.612579 247.610031,224.515472 
	C247.124405,226.024231 246.766266,228.025925 244.739014,228.223373 
	C242.281586,228.462692 242.022079,226.175507 241.286530,224.596588 
	C236.668518,214.683319 228.345657,210.651520 218.058655,213.388870 
	C207.606674,216.170105 202.693588,226.837570 207.388885,236.632751 
	C210.563004,243.254517 215.719788,248.221634 221.213547,252.868301 
	C229.219223,259.639587 237.370514,266.215424 244.748260,273.726379 
	C257.166260,286.368530 261.384277,301.190796 256.638397,318.151703 
	C251.607758,336.130188 238.486313,345.425232 220.923141,349.110962 
	C209.262833,351.557892 197.691086,351.199402 186.758484,345.859558 
	C178.769089,341.957275 177.100067,338.922516 176.421188,328.666260 
	C162.057922,332.990143 148.561691,328.256683 133.760406,325.357635 
	C141.144363,315.578033 146.505264,305.503998 155.882462,299.195618 
	C164.452179,293.430481 174.095734,291.923523 183.801712,297.059113 
	C190.208786,300.449219 191.807434,304.500275 189.834961,311.487427 
	C188.599960,315.862152 186.455002,319.768951 183.552109,323.157501 
	C189.803391,333.248596 205.161377,338.306915 215.684647,333.882080 
	C225.833344,329.614777 230.174377,314.984009 224.436920,304.215637 
	C221.401733,298.519073 216.688736,294.273285 211.965652,290.036224 
	C204.534454,283.369690 196.398346,277.508392 189.501709,270.227966 
	C185.820816,266.342224 182.463455,262.227356 179.485092,257.334686 
M166.443985,316.638428 
	C170.680084,316.771637 173.841934,314.812622 176.882858,311.607361 
	C170.286697,311.010712 161.842850,313.180420 157.889633,316.237457 
	C160.397202,316.361908 163.016953,316.491913 166.443985,316.638428 
z"/>
<path fill="#000000" opacity="1.000000" stroke="none" 
	d="
M376.534058,319.535767 
	C377.699554,321.508789 379.799805,322.509674 379.730927,325.851532 
	C366.729279,327.608002 353.960541,332.105988 340.068054,329.596100 
	C339.369995,331.939331 338.764984,334.144196 338.056915,336.315399 
	C335.619812,343.788483 333.446899,345.715088 325.500458,346.109528 
	C310.351288,346.861603 295.226593,346.140076 280.132507,344.706024 
	C277.484406,344.454437 274.803101,344.499115 272.169800,344.156250 
	C268.186768,343.637634 267.182098,341.787811 269.257172,338.506226 
	C271.132568,335.540405 271.670074,332.413361 271.668030,329.010712 
	C271.644226,289.042236 271.677063,249.073730 271.646881,209.105286 
	C271.643097,204.085098 271.270050,199.164154 267.572723,195.096436 
	C265.322235,192.620468 265.956207,190.727341 269.529236,190.705399 
	C280.019958,190.640991 290.511414,190.682938 301.002533,190.704529 
	C305.427277,190.713638 305.349030,193.832611 305.345856,196.981247 
	C305.320251,222.461121 305.323639,247.941025 305.317596,273.420929 
	C305.313568,290.407501 305.413147,307.395172 305.233337,324.379913 
	C305.186096,328.845062 306.805695,330.722229 311.258026,330.864563 
	C316.564667,331.034149 321.841003,332.042023 327.153717,330.732544 
	C329.938232,330.046204 332.498016,329.160461 334.679230,326.449371 
	C330.132416,322.419006 326.176331,318.271881 324.563751,312.389801 
	C322.244965,303.931885 324.428864,298.850952 332.743530,295.876434 
	C343.180328,292.142731 352.800079,294.281799 361.152130,301.376984 
	C367.152069,306.474030 371.135498,313.393219 376.534058,319.535767 
M341.643005,315.024048 
	C346.858337,318.359985 352.822876,313.120880 358.074036,316.523682 
	C351.601013,313.506897 345.122833,310.733276 336.766724,311.290375 
	C338.764374,312.834839 339.921021,313.729095 341.643005,315.024048 
z"/>
<path fill="#000000" opacity="1.000000" stroke="none" 
	d="
M267.848755,138.239655 
	C270.144043,142.711533 272.504303,146.754486 274.335693,151.024277 
	C279.717041,163.570541 278.020599,173.040070 268.145844,182.284256 
	C257.336395,192.403442 257.474915,193.739014 245.584793,181.495010 
	C234.960388,170.554398 233.980438,162.117508 240.741592,148.422607 
	C245.724014,138.330597 251.105988,128.435852 256.894653,117.331589 
	C260.838776,124.864136 264.255432,131.389252 267.848755,138.239655 
M255.389969,168.862946 
	C255.956802,169.782913 255.810944,171.161789 257.375977,171.733551 
	C260.495728,162.539398 261.260681,153.513321 256.803131,144.152512 
	C256.135956,147.872818 255.847137,151.345428 254.849533,154.600845 
	C253.427200,159.242188 253.208847,163.689728 255.389969,168.862946 
z"/>
<path fill="#000000" opacity="1.000000" stroke="none" 
	d="
M367.786133,237.934708 
	C379.617126,242.946442 389.640228,250.349533 401.941376,256.291016 
	C388.367310,262.601532 377.377838,270.919769 364.271881,274.990845 
	C356.403412,277.435028 349.250397,275.584534 342.848297,270.325226 
	C338.684906,266.904999 335.372437,262.779053 332.055969,258.617615 
	C330.283051,256.392975 329.977875,254.328094 331.987671,251.928131 
	C334.977783,248.357590 337.835541,244.701187 341.350311,241.593750 
	C349.238434,234.619904 358.007172,234.117386 367.786133,237.934708 
M373.784119,256.609131 
	C364.392303,253.401855 354.036469,253.267700 348.505341,256.341919 
	C351.217804,257.867096 354.058716,258.451385 357.090149,258.757202 
	C362.701050,259.323242 367.963562,257.534851 373.784119,256.609131 
z"/>
<path fill="#000000" opacity="1.000000" stroke="none" 
	d="
M300.583008,181.562302 
	C300.814972,172.065216 306.410553,166.444504 313.546814,162.361923 
	C322.377716,157.309875 332.539124,156.236130 342.441162,153.034744 
	C343.151764,158.502502 341.759186,162.847000 341.096100,167.167374 
	C339.898224,174.971725 340.581787,182.768509 340.306946,190.561798 
	C340.206726,193.403473 341.393768,195.743881 343.235413,197.765427 
	C345.706970,200.478363 345.391144,202.684097 342.356873,204.727219 
	C338.497345,207.325989 334.699524,210.018494 330.917603,212.729950 
	C326.305634,216.036545 321.576111,213.186371 316.914276,212.993011 
	C315.641235,212.940201 315.253052,211.418579 315.348083,210.212341 
	C316.002991,201.899536 314.859863,193.481110 320.701355,185.916611 
	C323.728271,181.996857 324.201660,176.105209 326.055939,170.405807 
	C318.973175,175.968918 314.943909,182.686646 312.179077,192.326233 
	C309.151428,186.233673 299.167694,192.049957 300.583008,181.562302 
z"/>
<path fill="#000000" opacity="1.000000" stroke="none" 
	d="
M132.495071,244.445480 
	C140.666458,239.861008 148.471176,235.102417 157.949127,235.741714 
	C164.523941,236.185181 169.654602,239.240387 172.384247,245.574585 
	C173.700912,248.629929 174.692581,251.886566 176.420029,254.689301 
	C179.005798,258.884674 177.988953,261.934814 174.843170,265.317535 
	C164.484024,276.456757 156.285873,278.311890 142.293945,272.524780 
	C131.808350,268.187897 122.624428,261.477112 110.940002,256.333252 
	C118.748970,252.034286 125.465782,248.336563 132.495071,244.445480 
M143.125168,255.543350 
	C141.494553,255.778091 139.863937,256.012848 137.623322,256.335388 
	C146.925659,257.892517 155.670792,261.569427 164.632553,255.485779 
	C157.381653,253.416473 150.659317,253.770111 143.125168,255.543350 
z"/>
<path fill="#000000" opacity="1.000000" stroke="none" 
	d="
M265.785217,344.203461 
	C277.533020,355.922791 279.208435,363.784241 272.680634,375.899994 
	C271.180664,378.683960 269.634705,381.452423 267.941101,384.120941 
	C264.209473,390.000549 260.757446,396.038605 257.828949,402.052002 
	C256.430817,402.344879 255.886307,401.798126 255.450439,401.018555 
	C250.577316,392.302460 245.603516,383.641022 240.846786,374.861908 
	C235.645996,365.263275 236.745651,356.309540 244.102554,348.176270 
	C245.107773,347.064972 246.047897,345.894867 247.050888,344.781464 
	C254.945740,336.017517 257.083282,335.924866 265.785217,344.203461 
M255.482437,375.183929 
	C255.798386,375.848999 256.114349,376.514099 256.534790,377.399170 
	C260.986481,369.350891 260.078827,361.592316 257.167480,353.792847 
	C254.724365,360.563812 253.265244,367.393524 255.482437,375.183929 
z"/>
<path fill="#000000" opacity="1.000000" stroke="none" 
	d="
M201.091919,162.758911 
	C208.504593,167.632126 214.018158,173.135345 213.481033,182.679993 
	C213.276871,186.308167 212.266098,188.202454 208.614639,188.809875 
	C206.356018,189.185608 204.198471,190.168930 201.189651,191.139450 
	C199.667465,182.629288 194.632751,176.480347 187.642029,170.286026 
	C191.776077,178.101959 190.718826,186.667053 197.294083,192.683975 
	C190.314590,196.845261 185.136353,201.673096 180.066330,206.697296 
	C176.225937,210.502975 173.901550,205.986359 171.303268,204.221069 
	C168.638779,202.410797 168.158966,200.187378 170.837784,197.687195 
	C173.164932,195.515198 173.640579,192.627579 173.687653,189.476593 
	C173.864014,177.669403 173.787735,165.897995 170.300369,152.881821 
	C181.235382,156.242294 191.552521,157.445663 201.091919,162.758911 
z"/>
<path fill="#000000" opacity="1.000000" stroke="none" 
	d="
M309.556519,364.500427 
	C304.270233,360.584290 299.733917,356.561127 299.047211,349.169159 
	C305.488403,348.219910 311.684418,346.613953 315.724640,354.241547 
	C317.256683,349.162048 324.944702,346.563446 328.771545,349.165741 
	C329.685669,349.787384 330.077118,350.718689 330.082611,351.709045 
	C330.124664,359.287170 330.105713,366.865631 330.105713,375.254791 
	C322.510010,372.243835 315.877380,369.093109 309.556519,364.500427 
z"/>
<path fill="#000000" opacity="1.000000" stroke="none" 
	d="
M211.186554,358.191833 
	C203.506348,366.053223 194.556473,371.157684 183.821411,374.913055 
	C183.144501,365.885406 184.339859,357.278900 182.965424,348.746063 
	C191.753113,348.484161 195.521362,350.301788 195.998550,355.044342 
	C199.708664,351.264679 204.194275,351.676331 208.699203,352.066101 
	C214.080658,352.531647 214.479965,353.353607 211.186554,358.191833 
z"/>
<path fill="#000000" opacity="1.000000" stroke="none" 
	d="
M429.161987,253.590912 
	C430.606812,254.761963 432.255280,256.037842 430.825317,257.437012 
	C425.798462,262.355591 420.274261,266.620728 412.562256,268.598236 
	C416.669922,260.082184 415.664886,251.942078 411.716766,243.846756 
	C412.178467,243.684357 412.640198,243.521957 413.101929,243.359543 
	C418.361786,246.703278 423.621674,250.047012 429.161987,253.590912 
z"/>
<path fill="#000000" opacity="1.000000" stroke="none" 
	d="
M175.345367,123.596130 
	C172.971085,119.977715 173.981949,117.857056 177.408997,116.211815 
	C183.697876,113.192688 189.846085,109.881195 196.124512,106.839333 
	C198.665436,105.608276 201.364761,105.085838 202.817520,108.511955 
	C204.351028,112.128510 202.120987,113.983269 199.184296,114.807144 
	C192.498260,116.682884 187.141495,121.131241 180.898407,123.823456 
	C179.156952,124.574425 177.380112,126.173080 175.345367,123.596130 
z"/>
<path fill="#000000" opacity="1.000000" stroke="none" 
	d="
M86.275032,252.208588 
	C91.076889,249.035065 95.467331,245.861023 101.318626,243.959549 
	C97.238556,252.311371 97.174911,260.322327 102.138710,267.464294 
	C100.553741,269.340302 99.351585,269.012146 98.392197,268.371246 
	C93.432991,265.058289 88.262917,261.980164 83.701027,258.178558 
	C79.983528,255.080643 84.364723,254.037750 86.275032,252.208588 
z"/>
<path fill="#000000" opacity="1.000000" stroke="none" 
	d="
M143.482681,147.287430 
	C142.618820,142.979599 141.372665,139.226273 139.679947,135.602234 
	C138.284882,132.615448 139.080048,130.508636 142.629562,130.738220 
	C149.211365,131.163925 155.383316,133.376846 162.086212,135.983658 
	C154.552811,139.603195 149.218002,144.931122 147.223282,152.871460 
	C143.914169,151.704727 144.029129,149.528610 143.482681,147.287430 
z"/>
<path fill="#000000" opacity="1.000000" stroke="none" 
	d="
M249.942093,92.986115 
	C251.688934,90.114716 253.208694,87.529854 254.821671,85.004532 
	C255.914780,83.293129 257.855286,81.772064 259.137665,83.983902 
	C262.508575,89.798073 266.855865,95.144409 269.138245,102.342644 
	C264.367767,102.451004 261.539032,98.020691 256.982635,99.168488 
	C252.995407,100.172920 250.018723,103.868225 245.258057,103.349335 
	C244.270782,98.756371 248.528488,96.675949 249.942093,92.986115 
z"/>
<path fill="#000000" opacity="1.000000" stroke="none" 
	d="
M370.186646,146.148163 
	C368.995819,148.402512 369.885925,150.846771 367.501038,153.747620 
	C364.466583,146.056351 360.158966,139.935455 352.487732,136.660583 
	C359.020538,132.856873 365.526611,130.900040 372.474274,130.837067 
	C375.250916,130.811890 375.511017,132.882416 374.584595,135.143494 
	C373.136566,138.677750 371.711212,142.221313 370.186646,146.148163 
z"/>
<path fill="#000000" opacity="1.000000" stroke="none" 
	d="
M262.440643,426.385864 
	C262.210297,426.862823 262.147461,427.018250 262.064758,427.162231 
	C258.123322,434.023865 256.691071,434.194183 252.300842,427.656189 
	C249.864395,424.027802 246.616684,420.699829 246.033157,414.665466 
	C253.928528,420.171692 260.861938,416.165039 268.643463,413.374176 
	C267.902069,419.004150 264.384949,422.137421 262.440643,426.385864 
z"/>
<path fill="#000000" opacity="1.000000" stroke="none" 
	d="
M288.278992,106.946243 
	C285.922577,106.434319 283.983734,105.981682 282.025513,105.639763 
	C279.449066,105.189888 277.573608,104.337044 278.276489,101.100479 
	C278.973633,97.890259 280.584473,96.617004 283.953247,97.422379 
	C289.273712,98.694351 294.667450,99.656677 300.004364,100.864105 
	C303.227478,101.593300 305.575500,102.935616 304.297485,107.058090 
	C303.056000,111.062706 300.452423,109.692245 297.903931,109.099091 
	C294.839325,108.385818 291.760559,107.733505 288.278992,106.946243 
z"/>
<path fill="#000000" opacity="1.000000" stroke="none" 
	d="
M147.560150,369.488617 
	C152.891281,369.861328 154.460205,374.693115 157.728271,377.441467 
	C158.552597,378.134735 157.953522,379.405945 157.130432,380.052521 
	C153.733505,382.721008 150.275162,385.403320 145.876297,386.115387 
	C141.588135,386.809570 139.525635,384.113770 141.399261,380.056152 
	C143.056488,376.467133 144.548340,372.720459 147.560150,369.488617 
z"/>
<path fill="#000000" opacity="1.000000" stroke="none" 
	d="
M306.683167,409.841095 
	C304.838440,406.304016 305.824951,404.088806 309.072021,402.828766 
	C311.669800,401.820679 314.318420,400.943542 316.981354,399.995178 
	C318.476196,401.462585 318.366852,403.426575 320.441589,404.537689 
	C324.420044,406.668213 324.083130,410.831329 320.146881,413.111176 
	C318.019562,414.343292 315.683563,415.279785 313.344269,416.056152 
	C312.002533,416.501404 310.146179,416.804077 309.619049,414.829193 
	C309.125000,412.978027 310.769958,412.822754 312.052795,412.486145 
	C312.811584,412.287079 313.721954,412.208130 313.943756,410.969604 
	C311.669525,409.945618 308.812103,413.317688 306.683167,409.841095 
z"/>
<path fill="#000000" opacity="1.000000" stroke="none" 
	d="
M372.004028,379.369995 
	C373.892242,384.678162 372.407410,386.578339 367.379669,385.926453 
	C362.768280,385.328583 359.701294,382.322479 356.724823,379.173462 
	C355.728088,378.118927 355.989746,377.068146 356.946320,376.131042 
	C358.835602,374.280121 360.731598,372.435852 362.642487,370.607300 
	C364.196777,369.119965 365.580048,369.344147 366.731354,371.114288 
	C368.440887,373.742615 370.129395,376.384674 372.004028,379.369995 
z"/>
<path fill="#000000" opacity="1.000000" stroke="none" 
	d="
M328.997192,393.498779 
	C334.697723,392.164459 336.769623,393.345154 338.887390,398.433929 
	C340.697784,402.784149 337.539490,404.363373 334.795013,406.223083 
	C334.248840,406.593231 333.658722,406.919678 333.049835,407.172150 
	C331.159576,407.955963 328.803131,410.012207 327.346771,407.522400 
	C325.481049,404.332764 329.838715,405.003113 330.783417,403.120087 
	C329.824036,402.197083 328.772583,403.161530 327.814880,403.257019 
	C325.225891,403.515167 323.700562,402.143372 322.819031,400.003479 
	C321.833954,397.612244 323.875397,396.880585 325.371368,395.894562 
	C326.472717,395.168701 327.543274,394.396118 328.997192,393.498779 
z"/>
<path fill="#000000" opacity="1.000000" stroke="none" 
	d="
M289.321838,409.116455 
	C291.387482,408.361206 293.135925,407.816681 294.899597,407.327118 
	C301.061615,405.616791 301.063599,405.623993 302.449554,411.885559 
	C304.054932,419.138519 302.251465,421.140289 294.300568,420.921814 
	C292.821808,419.408081 295.129547,418.228210 294.584961,416.488892 
	C288.589172,417.506714 287.243500,414.611969 289.321838,409.116455 
z"/>
<path fill="#000000" opacity="1.000000" stroke="none" 
	d="
M179.142426,406.108521 
	C173.088699,402.073181 172.782791,397.206238 177.884201,392.513550 
	C179.427292,391.094116 180.976639,391.484436 182.484756,392.230194 
	C184.294968,393.125275 184.590271,394.637817 183.714066,396.434479 
	C182.918686,398.065430 182.175446,399.721863 180.945404,402.362915 
	C183.669815,400.558777 185.771194,399.692688 187.684662,401.543365 
	C189.246262,403.053741 188.197861,404.592010 187.389450,406.065674 
	C185.971207,408.651031 183.859161,408.000061 181.751205,407.274109 
	C180.969055,407.004730 180.226837,406.619293 179.142426,406.108521 
z"/>
<path fill="#000000" opacity="1.000000" stroke="none" 
	d="
M220.645020,408.727997 
	C221.168961,412.891693 221.463242,416.687042 221.783203,420.813599 
	C215.832672,423.120819 213.110794,414.450714 206.584427,418.225464 
	C212.732300,408.048370 213.021011,404.152771 220.645020,408.727997 
z"/>
<path fill="#000000" opacity="1.000000" stroke="none" 
	d="
M330.500702,122.455307 
	C327.541473,120.422379 322.969666,119.704887 325.670380,114.690956 
	C325.980774,114.114731 326.324158,113.398918 326.849670,113.120850 
	C331.031494,110.907944 333.458038,114.895332 336.629059,116.124504 
	C338.761749,116.951195 340.608002,118.537430 339.628021,121.568413 
	C338.212738,125.945641 336.923492,126.147743 330.500702,122.455307 
z"/>
<path fill="#000000" opacity="1.000000" stroke="none" 
	d="
M381.925842,168.120728 
	C380.515472,166.239059 379.361664,164.617493 378.153687,163.037292 
	C376.161652,160.431396 377.149048,158.559570 379.425415,156.740845 
	C381.837524,154.813705 383.602356,155.684830 385.452393,157.565338 
	C390.093201,162.282684 390.539612,166.065765 386.805634,168.924179 
	C384.976715,170.324219 383.522675,170.215744 381.925842,168.120728 
z"/>
<path fill="#000000" opacity="1.000000" stroke="none" 
	d="
M135.673309,163.498672 
	C134.289764,165.190826 133.150742,166.614182 131.932343,167.965973 
	C130.693466,169.340469 129.390762,170.870239 127.354210,169.214767 
	C125.511757,167.717056 123.640785,166.019608 124.878937,163.356079 
	C125.704178,161.580826 126.948715,159.960938 128.205002,158.435760 
	C129.718353,156.598511 131.412460,154.926056 134.106415,156.650116 
	C136.708435,158.315323 137.964127,160.289581 135.673309,163.498672 
z"/>
<path fill="#000000" opacity="1.000000" stroke="none" 
	d="
M197.631012,399.238007 
	C200.671326,400.521912 203.386673,401.629425 206.382538,402.851318 
	C204.956818,407.102936 201.900604,409.991364 199.437820,413.190125 
	C197.898346,415.189636 195.687759,414.034515 194.033890,412.916901 
	C191.947708,411.507263 193.498215,409.968170 194.305588,408.624695 
	C195.238373,407.072540 196.348114,405.626709 197.331940,404.205597 
	C193.885971,399.906036 193.885971,399.906036 197.631012,399.238007 
z"/>
<path fill="#000000" opacity="1.000000" stroke="none" 
	d="
M100.064697,279.743225 
	C106.001335,280.277771 105.032608,284.785004 105.050056,288.055084 
	C105.068726,291.553711 101.525177,291.633057 99.067696,291.928375 
	C95.493141,292.357910 95.438423,289.163727 94.984001,286.857544 
	C94.246330,283.113831 95.235405,280.250183 100.064697,279.743225 
z"/>
<path fill="#000000" opacity="1.000000" stroke="none" 
	d="
M418.975037,283.318329 
	C418.288849,286.934998 419.775330,291.718658 414.224762,291.760284 
	C412.117462,291.776062 409.220398,291.332825 408.939240,288.321228 
	C408.667938,285.414856 408.318420,281.821655 411.305328,280.309235 
	C414.070557,278.909088 417.132233,279.765747 418.975037,283.318329 
z"/>
<path fill="#000000" opacity="1.000000" stroke="none" 
	d="
M229.687134,417.078857 
	C229.327545,414.959473 228.968750,413.212524 228.548218,411.164948 
	C231.584671,410.412842 234.602249,409.984283 237.025848,411.969025 
	C239.312302,413.841461 238.146286,416.562469 237.526016,418.933655 
	C236.840210,421.555450 236.168152,424.159210 232.390793,423.591370 
	C228.059509,422.940186 229.747177,419.860748 229.687134,417.078857 
z"/>
<path fill="#000000" opacity="1.000000" stroke="none" 
	d="
M379.995667,364.713165 
	C378.117798,366.644135 376.543335,368.365662 374.807007,369.904572 
	C373.504822,371.058685 371.940186,371.810791 370.400818,370.220123 
	C369.047821,368.822113 368.212616,367.134735 369.293488,365.263611 
	C370.798279,362.658661 372.851074,360.469788 375.102997,358.476166 
	C376.613953,357.138458 377.866058,358.021454 379.088928,358.956818 
	C381.032257,360.443176 382.058319,362.142181 379.995667,364.713165 
z"/>
<path fill="#000000" opacity="1.000000" stroke="none" 
	d="
M310.990601,108.853477 
	C313.712433,105.779396 318.527283,105.841293 321.968292,108.513138 
	C324.508331,110.485367 323.426849,112.570915 322.348633,114.655800 
	C321.988220,115.352760 321.422028,116.131767 320.750061,116.446609 
	C317.796661,117.830330 310.794525,112.646393 310.990601,108.853477 
z"/>
<path fill="#000000" opacity="1.000000" stroke="none" 
	d="
M213.727661,100.438522 
	C216.713577,99.641029 219.567642,98.576172 220.828094,102.120163 
	C221.605240,104.305222 223.110764,107.264832 219.400955,108.272263 
	C216.381973,109.092094 212.681732,112.556648 210.216171,108.075607 
	C208.620132,105.174873 209.208786,101.803528 213.727661,100.438522 
z"/>
<path fill="#000000" opacity="1.000000" stroke="none" 
	d="
M396.741760,192.093262 
	C397.417145,188.564865 399.932922,187.490463 402.561096,187.261719 
	C405.082977,187.042221 406.133270,189.326874 406.916626,191.351776 
	C408.035889,194.244858 408.060974,196.704208 404.524109,198.208267 
	C401.006592,199.704071 398.845459,198.754593 397.575409,195.312607 
	C397.236816,194.394989 397.015717,193.434006 396.741760,192.093262 
z"/>
<path fill="#000000" opacity="1.000000" stroke="none" 
	d="
M125.860825,355.481262 
	C124.340050,353.488831 122.996643,351.807312 121.932388,349.964600 
	C120.655632,347.753906 122.019516,346.220764 123.664406,344.923126 
	C125.438538,343.523560 127.341583,343.129547 128.856430,345.141541 
	C130.556366,347.399414 133.788635,349.318115 132.447250,352.642273 
	C131.488220,355.018951 129.456802,357.163696 125.860825,355.481262 
z"/>
<path fill="#000000" opacity="1.000000" stroke="none" 
	d="
M136.411972,358.133301 
	C140.567459,358.361023 142.128891,361.655029 144.172058,364.088989 
	C145.801392,366.029968 142.992905,370.557190 140.470810,370.057190 
	C136.792068,369.327850 134.464050,366.397583 132.973312,363.243073 
	C131.770401,360.697632 134.372192,359.544434 136.411972,358.133301 
z"/>
<path fill="#000000" opacity="1.000000" stroke="none" 
	d="
M104.231369,204.141602 
	C110.800415,205.355698 111.746758,207.276260 109.096855,212.923676 
	C108.148666,214.944443 106.993752,216.339432 104.506531,215.464462 
	C102.035545,214.595245 99.722488,213.444794 100.165581,210.300858 
	C100.512466,207.839661 101.107132,205.323883 104.231369,204.141602 
z"/>
<path fill="#000000" opacity="1.000000" stroke="none" 
	d="
M383.205048,347.289734 
	C384.939941,344.905914 386.221191,342.055176 389.505219,344.709503 
	C392.297668,346.966553 392.747925,349.665619 390.312103,352.377777 
	C388.628784,354.252106 387.586426,357.624146 383.719238,355.447968 
	C379.416199,353.026489 380.516846,350.439819 383.205048,347.289734 
z"/>
<path fill="#000000" opacity="1.000000" stroke="none" 
	d="
M409.241486,230.373581 
	C408.723297,227.247787 407.451202,224.121445 410.554230,222.343506 
	C412.373840,221.300949 414.823822,219.889496 416.804993,222.438004 
	C418.895508,225.127075 418.778351,230.484665 416.457001,232.006912 
	C413.867645,233.704941 411.200562,234.350159 409.241486,230.373581 
z"/>
<path fill="#000000" opacity="1.000000" stroke="none" 
	d="
M401.580688,333.776123 
	C400.659607,335.913605 400.006805,337.820618 398.927979,339.444641 
	C397.304169,341.889038 395.128601,341.507416 392.876404,340.166016 
	C390.761322,338.906189 390.370178,337.262787 391.489014,335.166687 
	C392.032043,334.149384 392.595703,333.141388 393.192780,332.155090 
	C394.180267,330.523865 394.744751,328.116333 397.356171,328.756104 
	C399.665070,329.321747 401.655273,330.549713 401.580688,333.776123 
z"/>
<path fill="#000000" opacity="1.000000" stroke="none" 
	d="
M118.750916,341.135559 
	C114.116959,340.513550 113.109268,337.066895 112.460098,333.701050 
	C112.015739,331.397125 113.442902,329.587402 115.714149,328.740143 
	C118.337814,327.761414 119.205124,329.710938 120.126930,331.510223 
	C121.870956,334.914276 125.223450,338.487579 118.750916,341.135559 
z"/>
<path fill="#000000" opacity="1.000000" stroke="none" 
	d="
M101.683533,221.796722 
	C106.037224,223.818008 106.869377,226.867523 104.635994,231.018036 
	C103.067192,233.933487 100.729095,233.590225 98.285828,232.491226 
	C95.382629,231.185318 95.570763,228.671921 96.037575,226.147247 
	C96.568237,223.277206 97.745880,221.098145 101.683533,221.796722 
z"/>
<path fill="#000000" opacity="1.000000" stroke="none" 
	d="
M279.888306,418.886536 
	C279.548828,416.655579 279.217041,414.856812 279.038635,413.042908 
	C278.841919,411.043488 279.834137,409.950226 281.841034,409.691437 
	C283.575165,409.467804 285.275635,409.287384 285.814270,411.507629 
	C286.359192,413.753937 287.000458,416.009094 287.207031,418.295807 
	C287.395813,420.385376 287.590485,422.780426 284.486938,423.265015 
	C281.351288,423.754608 280.402740,421.850983 279.888306,418.886536 
z"/>
<path fill="#000000" opacity="1.000000" stroke="none" 
	d="
M411.059570,297.969849 
	C416.536682,299.593719 415.080322,303.165344 413.868988,306.425079 
	C412.716949,309.525391 410.284729,309.253021 407.698029,308.283081 
	C404.977325,307.262817 404.312469,305.400299 405.160767,302.786774 
	C406.045410,300.061279 406.140472,296.449280 411.059570,297.969849 
z"/>
<path fill="#000000" opacity="1.000000" stroke="none" 
	d="
M403.730835,209.850708 
	C403.446136,205.324722 406.051453,204.210953 409.391449,204.476089 
	C413.491058,204.801544 413.903687,208.290146 413.570526,211.157837 
	C413.197662,214.367020 410.239258,215.765121 407.286713,215.585388 
	C404.325928,215.405121 404.502899,212.349136 403.730835,209.850708 
z"/>
<path fill="#000000" opacity="1.000000" stroke="none" 
	d="
M116.317596,195.063629 
	C114.640404,197.463638 113.770103,200.453629 110.054268,198.544052 
	C107.274437,197.115479 105.878784,195.219986 106.829407,192.155975 
	C107.653603,189.499466 108.905647,186.836349 112.401604,187.997345 
	C115.430824,189.003342 118.720024,190.300018 116.317596,195.063629 
z"/>
<path fill="#000000" opacity="1.000000" stroke="none" 
	d="
M400.388916,315.453186 
	C404.194519,313.440460 409.297974,316.078705 409.101959,319.632446 
	C409.002380,321.437744 408.340790,323.412872 406.704254,324.283966 
	C404.358582,325.532440 402.313599,323.886200 400.331268,322.786316 
	C398.563354,321.805420 398.505402,320.178162 399.006195,318.489349 
	C399.283997,317.552673 399.766388,316.676666 400.388916,315.453186 
z"/>
<path fill="#000000" opacity="1.000000" stroke="none" 
	d="
M108.335335,301.777161 
	C109.938950,305.702118 108.326195,307.454712 105.000572,308.332855 
	C101.893791,309.153198 100.462975,307.715424 99.507088,304.898773 
	C98.496902,301.922119 98.735565,299.766449 101.903580,298.407593 
	C105.216057,296.986816 107.344475,297.807648 108.335335,301.777161 
z"/>
<path fill="#000000" opacity="1.000000" stroke="none" 
	d="
M396.491699,173.630081 
	C398.269470,176.076355 400.271973,178.375458 397.420471,180.789474 
	C395.764587,182.191238 393.659790,184.339569 391.345795,182.277008 
	C389.482208,180.615921 386.876068,178.154068 388.661621,175.614426 
	C390.143127,173.507187 392.782776,170.898849 396.491699,173.630081 
z"/>
<path fill="#000000" opacity="1.000000" stroke="none" 
	d="
M116.609474,181.347321 
	C113.194824,178.065552 115.277924,175.607635 117.430344,173.533310 
	C119.853973,171.197632 122.030251,173.287766 123.999084,174.639526 
	C126.836395,176.587601 125.055412,178.637924 123.861435,180.578125 
	C121.966698,183.657089 119.612656,183.882324 116.609474,181.347321 
z"/>
<path fill="#000000" opacity="1.000000" stroke="none" 
	d="
M106.051971,317.219421 
	C108.512901,315.108765 110.680237,311.895172 113.523026,315.922882 
	C114.834480,317.781006 116.015091,320.416962 114.277519,322.363678 
	C112.694214,324.137634 109.862663,325.617676 107.599304,324.358582 
	C105.254486,323.054169 104.167442,320.380951 106.051971,317.219421 
z"/>
<path fill="#000000" opacity="1.000000" stroke="none" 
	d="
M231.913071,106.102829 
	C227.346481,105.940498 226.397644,102.846176 227.258926,99.913536 
	C228.159653,96.846619 231.555435,96.444130 234.372528,96.949226 
	C237.311569,97.476181 237.424820,100.076614 237.111694,102.470200 
	C236.754517,105.200638 234.308243,105.367668 231.913071,106.102829 
z"/>
<path fill="#000000" opacity="1.000000" stroke="none" 
	d="
M160.051178,391.757294 
	C157.205704,388.294556 160.426590,387.594635 162.102219,386.440216 
	C163.620667,385.394104 165.083435,383.244537 167.304504,384.784760 
	C169.458252,386.278259 168.305573,388.330048 167.691788,390.181274 
	C167.129578,391.876953 166.822449,393.713928 165.404755,394.938812 
	C162.932770,395.124146 161.921707,393.074585 160.051178,391.757294 
z"/>
<path fill="#000000" opacity="1.000000" stroke="none" 
	d="
M350.828247,393.671936 
	C349.236481,394.988342 347.749512,395.734253 347.376404,393.278015 
	C346.946930,390.450592 343.765900,386.905090 346.325287,385.044739 
	C349.181305,382.968719 351.756470,386.735199 354.161438,388.555420 
	C354.520447,388.827118 354.682190,389.359436 354.934540,389.770050 
	C354.517395,391.963013 352.333771,392.220154 350.828247,393.671936 
z"/>
<path fill="#000000" opacity="1.000000" stroke="none" 
	d="
M348.921967,132.310944 
	C346.283783,131.366745 343.562653,130.608856 344.047241,127.364120 
	C344.320709,125.533058 345.551178,123.861069 347.585785,123.593910 
	C349.786133,123.304993 351.377014,124.778793 352.600494,126.360641 
	C353.839020,127.962021 353.116791,129.570435 351.795685,130.796021 
	C351.095703,131.445389 350.124512,131.802399 348.921967,132.310944 
z"/>
<path fill="#000000" opacity="1.000000" stroke="none" 
	d="
M162.549469,126.008331 
	C164.269455,124.376144 165.742920,122.772667 167.958801,124.273758 
	C169.218964,125.127419 170.224518,126.284752 170.153412,127.960953 
	C170.070221,129.921799 168.576797,130.869080 167.093353,131.569641 
	C163.960083,133.049301 161.878937,130.707809 162.549469,126.008331 
z"/>
</svg>