<?xml version="1.0" standalone="no"?>
<!DOCTYPE svg PUBLIC "-//W3C//DTD SVG 20010904//EN"
 "http://www.w3.org/TR/2001/REC-SVG-20010904/DTD/svg10.dtd">
<svg version="1.0" xmlns="http://www.w3.org/2000/svg"
 width="300.000000pt" height="353.000000pt" viewBox="0 0 300.000000 353.000000"
 preserveAspectRatio="xMidYMid meet">
<metadata>
Created by potrace 1.10, written by Peter Selinger 2001-2011
</metadata>
<g transform="translate(0.000000,353.000000) scale(0.100000,-0.100000)"
fill="#000000" stroke="none">
<path d="M803 3020 c-131 -34 -222 -99 -271 -195 -36 -69 -44 -218 -16 -297
44 -121 159 -203 399 -283 132 -43 189 -75 211 -116 21 -41 12 -72 -29 -101
-27 -20 -44 -23 -117 -23 -67 0 -92 4 -119 20 -45 26 -72 65 -81 112 -3 21
-10 37 -16 36 -16 -3 -258 -53 -283 -59 -22 -5 -23 -8 -17 -50 26 -195 232
-324 513 -324 268 1 433 111 473 317 10 48 10 77 0 130 -29 171 -122 249 -399
338 -186 59 -231 90 -231 156 0 69 86 111 194 95 58 -9 93 -37 108 -89 6 -23
13 -43 14 -45 1 -2 68 11 148 28 81 16 149 30 151 30 16 0 1 84 -24 136 -32
67 -77 111 -156 147 -120 57 -314 73 -452 37z m303 -29 c136 -26 247 -100 279
-186 10 -24 15 -50 12 -58 -5 -13 -96 -39 -184 -53 -40 -6 -42 -5 -67 34 -13
22 -40 49 -58 60 -75 45 -208 34 -265 -23 -54 -54 -56 -106 -7 -165 35 -40 81
-63 238 -117 163 -55 220 -83 273 -136 55 -53 83 -114 90 -196 14 -171 -85
-303 -266 -353 -81 -22 -271 -25 -348 -4 -153 41 -260 127 -293 238 -12 41 6
54 100 72 122 23 126 22 149 -23 41 -79 112 -114 231 -114 109 0 180 51 180
128 0 77 -64 125 -254 190 -170 59 -233 91 -292 150 -84 84 -111 209 -72 334
44 144 195 229 409 230 53 1 118 -3 145 -8z"/>
<path d="M1909 2121 c-70 -22 -119 -87 -119 -156 0 -25 -4 -35 -15 -35 -29 0
-76 -31 -95 -63 -26 -42 -26 -113 -1 -151 39 -59 61 -66 224 -66 l147 0 0 -40
0 -40 -157 0 -158 0 -37 -39 c-45 -46 -50 -83 -14 -106 28 -19 58 -9 76 26 9
16 8 26 -5 45 -8 13 -20 24 -26 24 -8 0 -7 5 1 15 9 10 32 15 76 15 l64 0 0
-58 c0 -46 -4 -60 -20 -70 -49 -30 -2 -120 49 -92 35 18 45 48 26 76 -8 13
-20 24 -25 24 -6 0 -10 27 -10 60 l0 60 80 0 80 0 0 -59 c0 -50 -3 -61 -19
-66 -42 -13 -38 -74 5 -94 22 -9 31 -9 50 4 31 20 33 69 4 87 -16 10 -20 24
-20 70 l0 58 75 0 75 0 0 -58 c0 -46 -4 -60 -20 -70 -30 -18 -27 -67 6 -88 24
-16 27 -16 52 3 36 27 38 48 8 78 -22 22 -26 35 -26 80 l0 55 64 0 c72 0 104
-19 67 -40 -31 -16 -28 -65 5 -86 24 -16 27 -16 52 3 40 29 38 46 -9 97 l-43
46 -153 0 -153 0 0 40 0 40 135 0 c97 0 144 4 163 14 98 51 118 179 40 255
-27 26 -80 51 -111 51 -5 0 -23 15 -41 34 -38 41 -76 53 -128 39 -33 -9 -38
-8 -44 9 -14 45 -119 86 -175 69z m110 -37 c14 -8 37 -31 49 -50 21 -33 24
-34 45 -19 43 30 115 8 142 -45 13 -26 21 -30 56 -30 35 0 48 -6 80 -39 35
-34 39 -44 39 -87 0 -59 -26 -106 -70 -129 -26 -14 -71 -15 -320 -13 l-290 3
-31 31 c-75 76 -28 204 76 204 24 0 26 3 20 30 -12 54 32 134 85 153 31 11 93
7 119 -9z m-284 -614 c0 -18 -6 -26 -23 -28 -24 -4 -38 18 -28 44 3 9 15 14
28 12 17 -2 23 -10 23 -28z m690 0 c0 -18 -6 -26 -23 -28 -24 -4 -38 18 -28
44 3 9 15 14 28 12 17 -2 23 -10 23 -28z m-520 -90 c0 -18 -6 -26 -23 -28 -24
-4 -38 18 -28 44 3 9 15 14 28 12 17 -2 23 -10 23 -28z m180 0 c0 -20 -6 -26
-26 -28 -17 -2 -29 3 -32 12 -11 28 4 47 32 44 20 -2 26 -8 26 -28z m170 0 c0
-18 -6 -26 -23 -28 -24 -4 -38 18 -28 44 3 9 15 14 28 12 17 -2 23 -10 23 -28z"/>
<path d="M470 1638 c-1 -2 -2 -51 -3 -111 l-2 -107 68 0 67 0 0 -395 0 -395
-70 0 -70 0 0 -105 0 -105 500 0 500 0 0 210 0 211 -116 -3 -117 -3 2 -92 2
-93 -160 0 -161 0 0 385 0 385 65 0 65 0 0 110 0 110 -285 0 c-157 0 -285 -1
-285 -2z m525 -108 l0 -65 -42 -3 c-31 -2 -48 -10 -63 -29 -19 -25 -20 -39
-20 -400 l0 -374 25 -24 c23 -24 28 -25 173 -25 144 0 149 1 171 24 18 19 23
36 23 78 1 79 8 88 76 88 31 0 63 -4 70 -8 9 -7 12 -47 10 -168 l-3 -159 -455
0 -455 0 0 60 0 60 41 3 c28 2 49 11 63 26 22 24 22 25 22 412 -1 384 -1 388
-23 411 -13 14 -33 23 -53 23 -17 0 -36 5 -43 12 -15 15 -16 67 -2 103 l10 25
237 -2 238 -3 0 -65z"/>
</g>
</svg>
